<svg width="24" height="24" viewBox="0 0 24 24" fill="none" xmlns="http://www.w3.org/2000/svg">
<g id="Outline / Security / Eye Closed">
<path id="Vector" fill-rule="evenodd" clip-rule="evenodd" d="M22.2954 6.31059C22.6761 6.47376 22.8524 6.91467 22.6893 7.29539L21.9999 6.99995C22.6893 7.29539 22.6894 7.29521 22.6893 7.29539L22.6886 7.29707L22.6875 7.29955L22.6843 7.30691L22.6736 7.33099C22.6646 7.35112 22.6518 7.37934 22.6352 7.41502C22.6019 7.48637 22.5533 7.58769 22.4888 7.7141C22.3599 7.96675 22.1675 8.32063 21.9084 8.73641C21.4828 9.41945 20.8724 10.2776 20.0619 11.1301L21.0303 12.0985C21.3231 12.3913 21.3231 12.8662 21.0303 13.1591C20.7374 13.452 20.2625 13.452 19.9696 13.1591L18.969 12.1585C18.3093 12.7112 17.5528 13.23 16.695 13.6562L17.6286 15.0909C17.8545 15.4381 17.7562 15.9027 17.409 16.1286C17.0618 16.3545 16.5972 16.2562 16.3713 15.909L15.2821 14.2351C14.5028 14.4896 13.659 14.6626 12.7499 14.7246V16.4999C12.7499 16.9142 12.4141 17.2499 11.9999 17.2499C11.5857 17.2499 11.2499 16.9142 11.2499 16.4999V14.7246C10.3689 14.6645 9.54909 14.5002 8.78982 14.2584L7.71575 15.9091C7.48984 16.2562 7.02526 16.3546 6.67807 16.1287C6.33089 15.9027 6.23257 15.4382 6.45847 15.091L7.37089 13.6887C6.5065 13.2666 5.74381 12.7501 5.07842 12.1982L4.11744 13.1592C3.82455 13.4521 3.34968 13.4521 3.05678 13.1592C2.76389 12.8663 2.76389 12.3914 3.05678 12.0985L3.98055 11.1748C3.15599 10.3151 2.53525 9.4465 2.10277 8.75462C1.83984 8.33398 1.6446 7.97559 1.51388 7.71964C1.44848 7.59157 1.3991 7.48889 1.36537 7.41658C1.3485 7.38042 1.33553 7.35183 1.32641 7.33143L1.31562 7.30704L1.31238 7.29959L1.31129 7.29708L1.31088 7.29613C1.31081 7.29595 1.31056 7.29539 1.99992 6.99995L1.31088 7.29613C1.14772 6.91541 1.32376 6.47376 1.70448 6.31059C2.08489 6.14756 2.52539 6.3235 2.68888 6.70357C2.68882 6.70344 2.68894 6.7037 2.68888 6.70357L2.68983 6.70576L2.69591 6.71947C2.7018 6.73267 2.7114 6.75386 2.72472 6.78243C2.75139 6.83959 2.79296 6.9262 2.84976 7.03742C2.96345 7.26004 3.13762 7.58022 3.37472 7.95955C3.85033 8.72042 4.57157 9.70704 5.55561 10.6215C6.42151 11.4263 7.48259 12.1675 8.75165 12.6558C9.70614 13.023 10.7854 13.2499 11.9999 13.2499C13.2416 13.2499 14.342 13.0127 15.3124 12.6308C16.5738 12.1343 17.6277 11.3882 18.4866 10.5819C19.4562 9.67191 20.1668 8.69511 20.6354 7.94315C20.869 7.56825 21.0405 7.25221 21.1525 7.03262C21.2085 6.9229 21.2494 6.83752 21.2757 6.78119C21.2888 6.75304 21.2983 6.73217 21.3041 6.71919L21.31 6.70571L21.3106 6.70451C21.3105 6.70461 21.3106 6.70441 21.3106 6.70451M22.2954 6.31059C21.9147 6.14746 21.4738 6.32399 21.3106 6.70451L22.2954 6.31059ZM2.68888 6.70357C2.68882 6.70344 2.68894 6.7037 2.68888 6.70357V6.70357Z" fill="#3C4351"/>
</g>
</svg>
